<?xml version="1.0" standalone="no"?>
<!DOCTYPE svg PUBLIC "-//W3C//DTD SVG 20010904//EN"
 "http://www.w3.org/TR/2001/REC-SVG-20010904/DTD/svg10.dtd">
<svg version="1.0" xmlns="http://www.w3.org/2000/svg"
 width="700.000000pt" height="300.000000pt" viewBox="0 0 700.000000 300.000000"
 preserveAspectRatio="xMidYMid meet">
    <style type="text/css">
        .st0 {
            fill: #000000;
        }

        .st1 {
            fill: #FFFFFF;
        }
    </style>
<g transform="translate(0.000000,300.000000) scale(0.100000,-0.100000)" stroke="none" class="st0">
<path d="M3982 2647 c-9 -10 1 -20 46 -43 123 -63 292 -210 386 -336 73 -97
195 -322 220 -404 4 -12 18 -34 31 -48 22 -24 31 -26 105 -26 64 0 82 3 87 15
6 18 -53 180 -73 196 -10 8 -15 1 -24 -33 -6 -24 -16 -61 -22 -83 -8 -34 -11
-37 -20 -21 -11 20 -6 66 16 159 14 57 14 58 -17 117 -37 69 -64 103 -76 96
-5 -3 -12 -26 -15 -51 -12 -74 -26 -51 -26 41 l0 85 -52 64 c-29 35 -57 62
-63 61 -5 -1 -12 -27 -15 -57 -5 -54 -5 -54 -18 -24 -6 17 -14 49 -16 73 -4
43 -29 92 -46 92 -6 0 -10 -3 -11 -7 -3 -29 -11 -68 -14 -72 -2 -2 -9 17 -15
41 -12 46 -51 98 -74 98 -7 0 -25 9 -39 20 -16 13 -40 20 -67 20 -27 0 -51 7
-67 20 -30 23 -104 27 -121 7z"/>
<path d="M3775 2596 c-82 -25 -132 -61 -114 -83 15 -17 63 -17 78 1 18 21 90
43 136 41 66 -3 68 -4 110 -30 l40 -26 -105 7 c-98 5 -107 4 -124 -15 -16 -17
-16 -22 -4 -34 34 -34 55 -38 103 -17 60 26 100 25 177 -2 60 -20 134 -65 124
-75 -3 -3 -31 4 -63 15 -61 21 -148 37 -173 33 -8 -1 -21 -9 -29 -16 -11 -11
-10 -18 9 -45 30 -41 58 -52 88 -33 32 20 105 2 184 -44 57 -33 91 -64 52 -48
-21 8 -154 45 -164 45 -3 0 -15 -6 -25 -14 -19 -13 -18 -15 8 -55 15 -22 35
-42 45 -42 46 -3 72 -9 106 -23 54 -23 166 -99 166 -114 0 -9 -9 -7 -27 7 -16
10 -61 31 -101 47 -63 24 -75 26 -87 13 -13 -12 -10 -21 18 -68 17 -30 39 -57
47 -62 8 -4 44 -22 80 -39 36 -16 94 -53 130 -80 54 -41 72 -49 107 -50 23 0
44 3 46 8 5 7 -69 161 -138 288 -114 209 -296 390 -491 488 -59 29 -151 39
-209 22z"/>
<path d="M3501 2419 c-133 -25 -217 -111 -267 -276 -13 -44 -30 -85 -37 -91
-17 -13 -74 -30 -127 -37 -25 -4 -74 -12 -110 -20 -36 -7 -126 -25 -200 -39
-328 -63 -443 -87 -453 -93 -29 -18 67 -22 530 -22 575 0 531 -8 557 97 31
131 96 197 191 196 60 0 126 -29 175 -76 39 -37 216 -228 234 -253 8 -11 37
-15 123 -17 62 -1 115 1 118 4 15 14 -132 257 -211 348 -174 203 -370 307
-523 279z"/>
<path d="M4287 1863 c-2 -5 3 -21 13 -38 16 -29 20 -30 90 -33 65 -3 72 -1 60
13 -7 8 -17 15 -22 15 -5 0 -26 11 -46 25 -35 24 -86 33 -95 18z"/>
</g>
<g transform="translate(0.000000,300.000000) scale(0.100000,-0.100000)"
class="st1" stroke="none">
<path d="M5135 1811 c-15 -7 -56 -97 -157 -347 -75 -187 -140 -347 -144 -356
-6 -16 3 -18 98 -18 l104 0 78 198 c84 211 122 271 151 242 13 -13 7 -36 -51
-190 -35 -96 -71 -192 -79 -212 l-15 -38 103 0 102 0 82 213 c95 243 99 259
84 314 -9 34 -18 45 -54 61 -23 11 -68 23 -99 27 l-57 6 20 45 c10 25 19 50
19 55 0 11 -157 11 -185 0z"/>
<path d="M422 1749 c-82 -41 -104 -74 -193 -295 -77 -190 -88 -246 -61 -311
22 -52 66 -63 250 -63 111 0 163 4 174 13 13 10 138 308 138 330 0 4 -58 7
-129 7 l-129 0 -17 -42 c-11 -27 -14 -54 -10 -79 5 -30 2 -42 -14 -58 -24 -24
-49 -27 -57 -7 -5 13 106 303 132 344 16 24 52 30 60 8 3 -7 -2 -30 -10 -50
l-15 -36 102 0 c56 0 107 4 114 8 33 21 44 127 18 188 -22 53 -76 74 -196 74
-87 0 -101 -3 -157 -31z"/>
<path d="M2994 1770 c-55 -12 -118 -54 -149 -100 -43 -65 -166 -374 -172 -434
-7 -72 15 -122 64 -142 29 -12 66 -15 172 -12 173 4 191 13 250 127 23 44 41
88 41 100 0 25 -37 33 -135 29 -68 -3 -70 -4 -87 -36 -32 -65 -71 -91 -84 -57
-7 17 111 320 134 348 18 20 50 23 58 4 2 -7 -2 -30 -11 -50 l-15 -37 104 0
c122 0 131 5 141 78 10 74 -8 127 -53 157 -33 22 -52 25 -133 28 -51 2 -108 0
-125 -3z"/>
<path d="M1033 1700 c-98 -21 -156 -71 -203 -175 -124 -273 -133 -390 -35
-431 55 -22 268 -19 322 5 77 36 136 150 73 143 -14 -1 -73 -5 -132 -8 -87 -5
-109 -4 -113 7 -6 15 85 250 106 275 14 17 48 18 54 1 3 -7 -10 -59 -30 -116
l-34 -103 57 7 c65 8 136 36 169 67 13 12 32 45 43 75 40 107 15 207 -59 236
-50 21 -161 29 -218 17z"/>
<path d="M4633 1700 c-82 -17 -146 -67 -184 -143 -50 -96 -111 -274 -116 -332
-8 -118 32 -145 212 -145 138 0 177 9 218 47 32 31 87 132 87 162 0 26 -18 31
-120 31 -87 0 -88 0 -100 -29 -16 -39 -45 -65 -65 -58 -22 9 -19 24 27 144 51
133 65 155 92 151 22 -3 26 -29 11 -75 -7 -23 -6 -23 77 -23 141 0 158 12 158
118 0 72 -21 109 -76 133 -51 23 -159 32 -221 19z"/>
<path d="M5765 1704 c-11 -3 -37 -10 -58 -15 -47 -12 -121 -79 -149 -132 -40
-79 -109 -273 -115 -322 -8 -71 15 -121 64 -141 29 -12 66 -15 172 -12 121 3
140 6 172 26 43 26 96 122 154 277 60 161 48 256 -36 297 -36 18 -166 32 -204
22z m52 -185 c13 -13 -69 -232 -100 -266 -24 -26 -45 -30 -53 -8 -6 15 50 173
88 248 18 37 44 47 65 26z"/>
<path d="M6291 1699 c-85 -15 -135 -49 -167 -114 -31 -64 -35 -122 -10 -160 9
-13 48 -45 86 -70 78 -52 92 -77 62 -108 -33 -33 -53 -16 -45 38 l6 45 -101 0
c-58 0 -104 -4 -107 -10 -4 -6 -9 -34 -12 -63 -12 -119 46 -168 207 -175 155
-7 224 24 272 118 49 98 32 160 -56 210 -63 36 -106 73 -106 93 0 21 37 50 55
43 11 -4 15 -17 13 -48 l-3 -43 102 -3 101 -3 11 49 c12 56 1 114 -26 144 -44
50 -173 76 -282 57z"/>
<path d="M1347 1398 c-65 -161 -117 -297 -117 -301 0 -4 45 -6 101 -5 l100 3
80 195 c83 205 116 257 144 230 13 -14 6 -38 -60 -214 -41 -109 -75 -203 -75
-208 0 -5 45 -7 102 -6 l102 3 81 199 c84 207 113 252 143 223 12 -13 4 -40
-56 -203 -39 -104 -74 -197 -77 -207 -7 -16 0 -18 95 -15 l103 3 83 210 c87
221 98 270 69 324 -10 20 -29 34 -62 45 -59 20 -178 21 -236 1 -40 -13 -49
-13 -80 0 -27 11 -75 15 -180 15 l-143 0 -117 -292z"/>
<path d="M2400 1681 c-98 -30 -145 -87 -211 -255 -78 -200 -76 -287 6 -322 46
-19 350 -20 358 -1 3 6 55 136 117 287 62 151 114 281 117 288 6 15 -182 18
-192 2 -4 -7 -12 -7 -25 0 -21 12 -133 12 -170 1z m97 -173 c12 -15 -64 -217
-93 -249 -21 -23 -42 -25 -50 -4 -7 18 70 222 93 247 19 21 37 23 50 6z"/>
<path d="M3510 1680 c-97 -28 -145 -86 -211 -254 -78 -200 -76 -287 6 -322 46
-19 350 -20 358 -1 4 9 166 409 234 574 4 9 -39 12 -179 11 -100 0 -194 -4
-208 -8z m97 -172 c13 -16 -66 -222 -96 -251 -21 -22 -51 -17 -51 7 0 24 80
219 97 239 19 20 37 22 50 5z"/>
<path d="M3941 1668 c-5 -13 -43 -110 -85 -216 -77 -196 -88 -245 -65 -296 23
-49 68 -61 249 -64 l165 -3 118 293 c64 161 117 297 117 301 0 4 -46 6 -102 5
l-101 -3 -39 -95 c-118 -286 -131 -312 -155 -323 -51 -23 -48 3 25 199 39 104
73 197 77 207 7 15 -2 17 -94 17 -96 0 -102 -1 -110 -22z"/>
<path d="M5702 961 c-41 -26 -64 -65 -103 -171 -32 -89 -33 -136 -3 -161 22
-18 152 -23 199 -7 29 9 45 24 62 53 38 66 33 75 -40 75 -58 0 -65 -2 -75 -25
-12 -26 -26 -32 -36 -16 -10 15 58 166 74 166 10 0 14 -9 12 -27 -3 -27 -2
-28 52 -28 36 0 60 5 70 16 22 22 20 86 -3 115 -17 21 -29 24 -98 27 -65 2
-84 0 -111 -17z"/>
<path d="M6212 969 c-34 -7 -68 -29 -87 -57 -27 -38 -76 -177 -77 -216 -1 -64
23 -76 146 -76 l101 0 68 168 c37 92 67 172 67 178 0 12 -162 14 -218 3z m51
-107 c7 -10 -40 -123 -58 -141 -25 -25 -30 -3 -11 52 29 81 54 114 69 89z"/>
<path d="M5891 659 c-6 -18 -11 -34 -11 -35 0 -2 22 -4 48 -4 47 0 49 1 59 35
l11 35 -48 0 c-45 0 -49 -2 -59 -31z"/>
</g>
<g transform="translate(0.000000,300.000000) scale(0.100000,-0.100000)"
class="st0" stroke="none">
<path d="M4170 947 c-9 -7 -28 -33 -43 -59 -15 -26 -36 -50 -47 -53 -11 -3
-20 -10 -20 -15 0 -5 -16 -12 -35 -16 -19 -3 -758 -7 -1642 -8 -1130 -1 -1607
-4 -1610 -12 -4 -13 263 -27 1027 -54 2014 -71 1933 -68 1978 -86 23 -9 42
-21 42 -26 0 -4 4 -8 9 -8 5 0 40 -18 79 -40 66 -38 73 -40 157 -40 89 0 89 0
224 65 234 113 245 119 284 160 41 43 101 160 93 182 -4 9 -32 13 -104 13
-103 0 -119 -4 -101 -27 9 -10 8 -13 -4 -13 -8 0 -22 11 -31 25 -16 24 -20 25
-129 25 -72 -1 -117 -5 -127 -13z"/>
<path d="M4722 928 c-27 -30 -64 -117 -57 -136 4 -10 27 7 80 59 41 40 75 79
75 86 0 23 -74 16 -98 -9z"/>
</g>
</svg>
