<svg xmlns="http://www.w3.org/2000/svg" xmlns:xlink="http://www.w3.org/1999/xlink" id="_图层_1" x="0px" y="0px"
    viewBox="0 0 410.1 92.2" style="enable-background:new 0 0 410.1 92.2;" xml:space="preserve">
    <style type="text/css">
        .st0 {
            fill: #8DC21F;
        }

        .st1 {
            fill: #FFFFFF;
        }
    </style>
    <g>
        <g>
            <g>
                <g>
                    <g>
                        <polygon class="st0" points="141.2,0.9 111.7,0.9 122.9,21.1      "></polygon>
                        <g>
                            <path class="st1"
                                d="M317.6,0.9L312,25.9L300.6,5c-1.4-2.5-4.1-4-7.4-4h-16.3l-10,43.3h21.7l5.6-25l13.6,25h21.5l10-43.3       H317.6z">
                            </path>
                            <polygon class="st1"
                                points="404.3,0.9 373.2,0.9 343.3,0.9 341,10.7 364.2,10.7 333.3,44.2 363.4,44.2 394.3,44.2        396.6,34.5 372.6,34.5       ">
                            </polygon>
                            <path class="st1"
                                d="M74.8,17.4l0.2-0.8c2-8.6,0.5-15.6-12.6-15.6H48.2h-1.9h-9h-2.2H15.7l-10,43.3h21.5l4.5-19.3l15.2,19.3       h26.3L61.5,31.9C68.3,29.6,73.3,24,74.8,17.4z M35,10.7h13.8c4.3,0,5.4,2.6,4.7,5.8l-0.2,0.9c-0.7,3.2-3.1,5.8-7.3,5.8H32.1       L35,10.7z">
                            </path>
                            <path class="st1"
                                d="M196.9,25.4l0.7-2.8l1.4-6.1c2-8.6-3.6-15.6-12.6-15.6H181h-16h-3.1h-18.4l-10,43.3h10.8h10.8h14.4h2       C182.1,44.2,193.9,38,196.9,25.4z M177.3,16.9l-2.4,10.2c-1.1,4.7-5.8,7.3-9,7.3h-8.7l5.5-23.8h9.5       C175.4,10.7,178.5,11.9,177.3,16.9z">
                            </path>
                            <path class="st1"
                                d="M239,0.9h-3.6h-6.2c-4.8,0-9.8,2.7-12.9,7L189,44.2h22.3l8-11.3h20.3l1.2,11.3h23.8l-6.7-43.3H239z        M226.3,23.2L237,8.1l1.6,15.1H226.3z">
                            </path>
                            <polygon class="st1"
                                points="79.5,0.9 92.7,25.1 73.8,44.2 102,44.2 120.1,24.5 107,0.9       "></polygon>
                        </g>
                    </g>
                </g>
            </g>
        </g>
        <g>
            <polygon class="st1"
                points="279.7,65.1 287.6,65.1 281.3,91.2 290.1,91.2 296.4,65.1 304.3,65.1 305.7,59.6 281,59.6   ">
            </polygon>
            <polygon class="st1"
                points="325.7,59.6 318.8,70.4 317.2,59.6 307.6,59.6 312.5,78.7 309.5,91.2 318.3,91.2 321.2,78.9    335.5,59.6   ">
            </polygon>
            <path class="st1"
                d="M350.3,59.6h-12.5l-7.6,31.6h8.8l3-12.5h3.2l3.2,12.5h9.1l-3.9-13.7c4.1-1.4,6.2-3.9,7.3-8.2   c0.7-3,0.5-5.2-0.8-6.8C358.5,60.5,355.4,59.6,350.3,59.6z M345.2,65.1h4.1c1.4,0,2.3,0.3,2.8,0.8c0.4,0.6,0.5,1.5,0.1,3   c-0.6,2.6-1.7,4.2-5.1,4.2h-3.8L345.2,65.1z">
            </path>
            <polygon class="st1"
                points="389.4,65.1 390.8,59.6 369.6,59.6 362,91.2 383.2,91.2 384.5,85.6 372.1,85.6 373.9,78.1 384.6,78.1    385.9,72.5 375.2,72.5 377,65.1   ">
            </polygon>
        </g>
    </g>
</svg>